<svg
  width="32"
  height="32"
  viewBox="0 0 32 32"
  fill="none"
  xmlns="http://www.w3.org/2000/svg"
>
  <rect x="2" y="2" width="28" height="28" rx="7" fill="#cbd5e1" />
  <rect x="2.5" y="2.5" width="27" height="27" rx="6.5" stroke="#94a3b8" />

  <ellipse cx="16" cy="11" rx="8.2" ry="6.8" fill="#0f172a" />
  <rect x="7.8" y="14.2" width="16.4" height="5.2" rx="2.6" fill="#0f172a" />
  <ellipse cx="16" cy="8.3" rx="4.8" ry="2.2" fill="#1e293b" />

  <circle cx="13.1" cy="11" r="1.45" fill="#f8fafc" />
  <circle cx="18.9" cy="11" r="1.45" fill="#f8fafc" />
  <circle cx="13.1" cy="11.2" r="0.58" fill="#0f172a" />
  <circle cx="18.9" cy="11.2" r="0.58" fill="#0f172a" />
  <path
    d="M14.2 14.2C14.8 14.7 15.4 14.9 16 14.9C16.6 14.9 17.2 14.7 17.8 14.2"
    stroke="#e2e8f0"
    strokeWidth="1"
    strokeLinecap="round"
  />

  <path d="M8.6 19.2C7 20.6 7.1 22.9 8.9 24.2" stroke="#020617" strokeWidth="2.2" strokeLinecap="round" />
  <path d="M10.9 19.4C9.6 21 9.8 23.3 11.7 24.7" stroke="#020617" strokeWidth="2.2" strokeLinecap="round" />
  <path d="M13.2 19.6C12.3 21.2 12.5 23.6 14.1 25" stroke="#020617" strokeWidth="2.2" strokeLinecap="round" />
  <path d="M15.4 19.8C15 21.4 15.4 24 16.4 25.5" stroke="#020617" strokeWidth="2.2" strokeLinecap="round" />
  <path d="M16.6 19.8C17 21.4 16.6 24 15.6 25.5" stroke="#020617" strokeWidth="2.2" strokeLinecap="round" />
  <path d="M18.8 19.6C19.7 21.2 19.5 23.6 17.9 25" stroke="#020617" strokeWidth="2.2" strokeLinecap="round" />
  <path d="M21.1 19.4C22.4 21 22.2 23.3 20.3 24.7" stroke="#020617" strokeWidth="2.2" strokeLinecap="round" />
  <path d="M23.4 19.2C25 20.6 24.9 22.9 23.1 24.2" stroke="#020617" strokeWidth="2.2" strokeLinecap="round" />
</svg>
